<svg width="25" height="28" viewBox="0 0 25 28" fill="none" xmlns="http://www.w3.org/2000/svg">
<path fill-rule="evenodd" clip-rule="evenodd" d="M21.875 23.8414C21.875 24.6532 21.175 25.0002 20.3125 25.0002H18.75C17.8875 25.0002 17.1875 24.6532 17.1875 23.8414V22.3708C17.1875 20.7458 15.7891 19.1178 14.0625 19.1178H10.9375C9.21094 19.1178 7.8125 20.7458 7.8125 22.3708V23.8414C7.8125 24.6532 7.1125 25.0002 6.25 25.0002H4.6875C3.825 25.0002 3.125 24.6532 3.125 23.8414V11.984C3.125 11.7884 3.20781 11.6016 3.35312 11.4634L11.3797 3.91048C11.9906 3.33548 12.9797 3.33548 13.5891 3.91048L21.6469 11.4928C21.7922 11.6311 21.875 11.8179 21.875 12.012V23.8414ZM25 11.2134C25 10.8237 24.836 10.4517 24.5453 10.1752L14.7031 0.866354C13.4844 -0.285117 11.5047 -0.289501 10.2812 0.857557L0.459379 10.0708C0.165629 10.3473 0 10.7208 0 11.112V25.312C0 26.937 1.39844 27.9414 3.125 27.9414H7.8125C9.53906 27.9414 10.9375 26.937 10.9375 25.312V23.8414C10.9375 23.0297 11.6375 22.3708 12.5 22.3708C13.3625 22.3708 14.0625 23.0297 14.0625 23.8414V25.312C14.0625 26.937 15.4609 27.9414 17.1875 27.9414H21.875C23.6016 27.9414 25 26.937 25 25.312V11.2134Z" fill="white"/>
</svg>
