<svg width="29" height="30" viewBox="0 0 29 30" fill="none" xmlns="http://www.w3.org/2000/svg">
<path fill-rule="evenodd" clip-rule="evenodd" d="M16.9182 0.22836C16.3627 6.70552e-08 15.6585 0 14.25 0C12.8415 0 12.1372 6.70552e-08 11.5818 0.22836C10.8411 0.532845 10.2526 1.11687 9.94584 1.85195C9.80578 2.18751 9.75097 2.57775 9.72952 3.14699C9.69801 3.98352 9.26574 4.75784 8.53525 5.1764C7.80477 5.59494 6.91296 5.57931 6.16723 5.18814C5.65977 4.92195 5.29183 4.77393 4.92898 4.72653C4.13413 4.62267 3.33027 4.83644 2.69424 5.3208C2.21721 5.68407 1.86508 6.28935 1.16085 7.4999C0.456612 8.71045 0.104502 9.31572 0.0260216 9.90736C-0.0786334 10.6962 0.136767 11.494 0.624822 12.1252C0.847587 12.4134 1.16065 12.6555 1.64655 12.9585C2.36086 13.404 2.82048 14.1629 2.82043 15C2.82039 15.8371 2.36079 16.5958 1.64655 17.0412C1.16058 17.3443 0.847452 17.5866 0.624672 17.8748C0.136617 18.506 -0.0787683 19.3036 0.0258717 20.0925C0.104352 20.6841 0.456476 21.2895 1.1607 22.5C1.86493 23.7105 2.21706 24.3159 2.69409 24.6791C3.33012 25.1634 4.13398 25.3771 4.92883 25.2733C5.29167 25.226 5.65957 25.0779 6.16699 24.8118C6.91278 24.4206 7.80465 24.405 8.53518 24.8235C9.26571 25.2421 9.69799 26.0164 9.72952 26.8531C9.75097 27.4222 9.80578 27.8125 9.94584 28.1481C10.2526 28.8831 10.8411 29.4672 11.5818 29.7717C12.1372 30 12.8415 30 14.25 30C15.6585 30 16.3627 30 16.9182 29.7717C17.6589 29.4672 18.2473 28.8831 18.5541 28.1481C18.6942 27.8125 18.7491 27.4223 18.7705 26.853C18.802 26.0165 19.2342 25.2421 19.9647 24.8235C20.6952 24.4049 21.5871 24.4206 22.3329 24.8118C22.8403 25.0779 23.2081 25.2258 23.571 25.2732C24.3658 25.3772 25.1697 25.1634 25.8057 24.6791C26.2828 24.3158 26.6349 23.7105 27.3391 22.4999C28.0434 21.2894 28.3954 20.6841 28.474 20.0925C28.5786 19.3036 28.3632 18.5058 27.8752 17.8746C27.6523 17.5865 27.3393 17.3442 26.8533 17.0412C26.1391 16.5958 25.6795 15.837 25.6795 14.9998C25.6795 14.1627 26.1391 13.4042 26.8533 12.9588C27.3394 12.6557 27.6525 12.4135 27.8754 12.1252C28.3633 11.4941 28.5787 10.6963 28.4742 9.90746C28.3956 9.31582 28.0435 8.71054 27.3393 7.5C26.635 6.28945 26.283 5.68417 25.8058 5.3209C25.1698 4.83654 24.366 4.62278 23.5711 4.72663C23.2083 4.77404 22.8403 4.92204 22.333 5.1882C21.5872 5.57938 20.6953 5.59503 19.9648 5.17644C19.2343 4.75787 18.802 3.98349 18.7704 3.14691C18.7489 2.57772 18.6942 2.1875 18.5541 1.85195C18.2473 1.11687 17.6589 0.532845 16.9182 0.22836ZM14.25 19.5C16.7542 19.5 18.7842 17.4853 18.7842 15C18.7842 12.5147 16.7542 10.5 14.25 10.5C11.7457 10.5 9.71574 12.5147 9.71574 15C9.71574 17.4853 11.7457 19.5 14.25 19.5Z" fill="white"/>
</svg>
